<mxfile host="app.diagrams.net" modified="2024-03-30T20:19:55.559Z" agent="Mozilla/5.0 (Windows NT 10.0; Win64; x64) AppleWebKit/537.36 (KHTML, like Gecko) Chrome/120.0.0.0 YaBrowser/24.1.0.0 Safari/537.36" etag="HYQQfOoF-gJIRifyPCj_" version="24.1.0" type="device">
  <diagram name="Страница — 1" id="0c3F5vv0MlWByFiKCvyx">
    <mxGraphModel dx="2497" dy="958" grid="1" gridSize="10" guides="1" tooltips="1" connect="1" arrows="1" fold="1" page="1" pageScale="1" pageWidth="827" pageHeight="1169" math="0" shadow="0">
      <root>
        <mxCell id="0" />
        <mxCell id="1" parent="0" />
        <mxCell id="mTcijaQBYKvf38kC7ch_-11" style="edgeStyle=orthogonalEdgeStyle;rounded=0;orthogonalLoop=1;jettySize=auto;html=1;exitX=0.5;exitY=1;exitDx=0;exitDy=0;" parent="1" source="mTcijaQBYKvf38kC7ch_-1" target="mTcijaQBYKvf38kC7ch_-4" edge="1">
          <mxGeometry relative="1" as="geometry" />
        </mxCell>
        <mxCell id="mTcijaQBYKvf38kC7ch_-1" value="" style="ellipse;html=1;shape=endState;fillColor=#000000;strokeColor=none;" parent="1" vertex="1">
          <mxGeometry x="389" y="160" width="40" height="40" as="geometry" />
        </mxCell>
        <mxCell id="mTcijaQBYKvf38kC7ch_-7" style="edgeStyle=orthogonalEdgeStyle;rounded=0;orthogonalLoop=1;jettySize=auto;html=1;exitX=0;exitY=0.5;exitDx=0;exitDy=0;" parent="1" source="mTcijaQBYKvf38kC7ch_-4" target="mTcijaQBYKvf38kC7ch_-6" edge="1">
          <mxGeometry relative="1" as="geometry" />
        </mxCell>
        <mxCell id="mTcijaQBYKvf38kC7ch_-4" value="Сущ или новый пользователь" style="shape=rhombus;perimeter=rhombusPerimeter;whiteSpace=wrap;html=1;align=center;" parent="1" vertex="1">
          <mxGeometry x="326.5" y="230" width="165" height="60" as="geometry" />
        </mxCell>
        <mxCell id="mTcijaQBYKvf38kC7ch_-32" style="edgeStyle=orthogonalEdgeStyle;rounded=0;orthogonalLoop=1;jettySize=auto;html=1;exitX=0.5;exitY=1;exitDx=0;exitDy=0;entryX=0.5;entryY=0;entryDx=0;entryDy=0;" parent="1" source="mTcijaQBYKvf38kC7ch_-6" target="mTcijaQBYKvf38kC7ch_-14" edge="1">
          <mxGeometry relative="1" as="geometry" />
        </mxCell>
        <mxCell id="mTcijaQBYKvf38kC7ch_-6" value="Подать запрос на регистрацию" style="whiteSpace=wrap;html=1;align=center;" parent="1" vertex="1">
          <mxGeometry x="60" y="240" width="100" height="40" as="geometry" />
        </mxCell>
        <mxCell id="mTcijaQBYKvf38kC7ch_-61" style="edgeStyle=orthogonalEdgeStyle;rounded=1;orthogonalLoop=1;jettySize=auto;html=1;exitX=0.5;exitY=1;exitDx=0;exitDy=0;curved=0;" parent="1" source="mTcijaQBYKvf38kC7ch_-9" target="mTcijaQBYKvf38kC7ch_-60" edge="1">
          <mxGeometry relative="1" as="geometry" />
        </mxCell>
        <mxCell id="mTcijaQBYKvf38kC7ch_-9" value="Авторизоваться" style="whiteSpace=wrap;html=1;align=center;" parent="1" vertex="1">
          <mxGeometry x="690" y="250" width="130" height="40" as="geometry" />
        </mxCell>
        <mxCell id="mTcijaQBYKvf38kC7ch_-13" value="Зарегистрированный пользователь" style="text;html=1;align=center;verticalAlign=middle;whiteSpace=wrap;rounded=0;" parent="1" vertex="1">
          <mxGeometry x="470" y="230" width="180" height="30" as="geometry" />
        </mxCell>
        <mxCell id="mTcijaQBYKvf38kC7ch_-34" style="edgeStyle=orthogonalEdgeStyle;rounded=1;orthogonalLoop=1;jettySize=auto;html=1;exitX=0;exitY=0.5;exitDx=0;exitDy=0;entryX=0.25;entryY=0;entryDx=0;entryDy=0;curved=0;" parent="1" source="mTcijaQBYKvf38kC7ch_-14" target="mTcijaQBYKvf38kC7ch_-33" edge="1">
          <mxGeometry relative="1" as="geometry" />
        </mxCell>
        <mxCell id="mTcijaQBYKvf38kC7ch_-14" value="Ответ" style="shape=rhombus;perimeter=rhombusPerimeter;whiteSpace=wrap;html=1;align=center;" parent="1" vertex="1">
          <mxGeometry x="43" y="330" width="134" height="40" as="geometry" />
        </mxCell>
        <mxCell id="mTcijaQBYKvf38kC7ch_-15" value="" style="line;strokeWidth=4;rotatable=0;dashed=0;labelPosition=right;align=left;verticalAlign=middle;spacingTop=0;spacingLeft=6;points=[];portConstraint=eastwest;direction=south;" parent="1" vertex="1">
          <mxGeometry x="650" y="234" width="10" height="130" as="geometry" />
        </mxCell>
        <mxCell id="mTcijaQBYKvf38kC7ch_-20" style="edgeStyle=orthogonalEdgeStyle;rounded=1;orthogonalLoop=1;jettySize=auto;html=1;exitX=1;exitY=0.5;exitDx=0;exitDy=0;entryX=0.455;entryY=0.72;entryDx=0;entryDy=0;entryPerimeter=0;curved=0;" parent="1" source="mTcijaQBYKvf38kC7ch_-14" target="mTcijaQBYKvf38kC7ch_-15" edge="1">
          <mxGeometry relative="1" as="geometry">
            <Array as="points">
              <mxPoint x="427" y="350" />
              <mxPoint x="427" y="293" />
            </Array>
          </mxGeometry>
        </mxCell>
        <mxCell id="mTcijaQBYKvf38kC7ch_-22" style="edgeStyle=orthogonalEdgeStyle;rounded=0;orthogonalLoop=1;jettySize=auto;html=1;exitX=1;exitY=0.5;exitDx=0;exitDy=0;entryX=0.197;entryY=0.8;entryDx=0;entryDy=0;entryPerimeter=0;" parent="1" source="mTcijaQBYKvf38kC7ch_-4" target="mTcijaQBYKvf38kC7ch_-15" edge="1">
          <mxGeometry relative="1" as="geometry" />
        </mxCell>
        <mxCell id="mTcijaQBYKvf38kC7ch_-23" style="edgeStyle=orthogonalEdgeStyle;rounded=0;orthogonalLoop=1;jettySize=auto;html=1;exitX=1;exitY=0.5;exitDx=0;exitDy=0;" parent="1" edge="1">
          <mxGeometry relative="1" as="geometry">
            <mxPoint x="655" y="270" as="sourcePoint" />
            <mxPoint x="690" y="270" as="targetPoint" />
          </mxGeometry>
        </mxCell>
        <mxCell id="mTcijaQBYKvf38kC7ch_-41" style="edgeStyle=orthogonalEdgeStyle;rounded=0;orthogonalLoop=1;jettySize=auto;html=1;exitX=0.5;exitY=1;exitDx=0;exitDy=0;entryX=0.5;entryY=0;entryDx=0;entryDy=0;" parent="1" source="mTcijaQBYKvf38kC7ch_-24" target="mTcijaQBYKvf38kC7ch_-40" edge="1">
          <mxGeometry relative="1" as="geometry" />
        </mxCell>
        <mxCell id="mTcijaQBYKvf38kC7ch_-24" value="Просмотр списка услуг" style="whiteSpace=wrap;html=1;align=center;" parent="1" vertex="1">
          <mxGeometry x="683" y="400" width="145" height="40" as="geometry" />
        </mxCell>
        <mxCell id="mTcijaQBYKvf38kC7ch_-31" value="Согласие" style="text;html=1;align=center;verticalAlign=middle;whiteSpace=wrap;rounded=0;" parent="1" vertex="1">
          <mxGeometry x="280" y="325" width="60" height="30" as="geometry" />
        </mxCell>
        <mxCell id="k0_CFrGwtuwRrdzMCQq7-3" style="edgeStyle=orthogonalEdgeStyle;rounded=0;orthogonalLoop=1;jettySize=auto;html=1;exitX=0.5;exitY=1;exitDx=0;exitDy=0;entryX=0.5;entryY=0;entryDx=0;entryDy=0;" edge="1" parent="1" source="mTcijaQBYKvf38kC7ch_-33" target="k0_CFrGwtuwRrdzMCQq7-1">
          <mxGeometry relative="1" as="geometry" />
        </mxCell>
        <mxCell id="mTcijaQBYKvf38kC7ch_-33" value="Ознакомление с причиной отказа регистрации" style="rounded=0;whiteSpace=wrap;html=1;" parent="1" vertex="1">
          <mxGeometry x="10" y="460" width="150" height="40" as="geometry" />
        </mxCell>
        <mxCell id="mTcijaQBYKvf38kC7ch_-36" value="Отказ" style="text;html=1;align=center;verticalAlign=middle;whiteSpace=wrap;rounded=0;rotation=-90;" parent="1" vertex="1">
          <mxGeometry x="-17" y="364" width="60" height="30" as="geometry" />
        </mxCell>
        <mxCell id="mTcijaQBYKvf38kC7ch_-37" value="Клиент" style="text;html=1;align=center;verticalAlign=middle;whiteSpace=wrap;rounded=0;" parent="1" vertex="1">
          <mxGeometry x="379" y="120" width="60" height="30" as="geometry" />
        </mxCell>
        <mxCell id="mTcijaQBYKvf38kC7ch_-38" value="" style="ellipse;html=1;shape=endState;fillColor=#000000;strokeColor=#000000;" parent="1" vertex="1">
          <mxGeometry x="160" y="650" width="30" height="30" as="geometry" />
        </mxCell>
        <mxCell id="mTcijaQBYKvf38kC7ch_-42" style="edgeStyle=orthogonalEdgeStyle;rounded=1;orthogonalLoop=1;jettySize=auto;html=1;exitX=1;exitY=0.5;exitDx=0;exitDy=0;entryX=1;entryY=0.5;entryDx=0;entryDy=0;curved=0;" parent="1" source="mTcijaQBYKvf38kC7ch_-40" target="mTcijaQBYKvf38kC7ch_-24" edge="1">
          <mxGeometry relative="1" as="geometry">
            <Array as="points">
              <mxPoint x="920" y="505" />
              <mxPoint x="920" y="420" />
            </Array>
          </mxGeometry>
        </mxCell>
        <mxCell id="mTcijaQBYKvf38kC7ch_-50" style="edgeStyle=orthogonalEdgeStyle;rounded=1;orthogonalLoop=1;jettySize=auto;html=1;exitX=0;exitY=0.5;exitDx=0;exitDy=0;entryX=0.5;entryY=0;entryDx=0;entryDy=0;curved=0;" parent="1" source="mTcijaQBYKvf38kC7ch_-40" target="mTcijaQBYKvf38kC7ch_-49" edge="1">
          <mxGeometry relative="1" as="geometry" />
        </mxCell>
        <mxCell id="mTcijaQBYKvf38kC7ch_-40" value="" style="shape=rhombus;perimeter=rhombusPerimeter;whiteSpace=wrap;html=1;align=center;" parent="1" vertex="1">
          <mxGeometry x="717.5" y="490" width="75" height="30" as="geometry" />
        </mxCell>
        <mxCell id="mTcijaQBYKvf38kC7ch_-47" value="" style="text;strokeColor=none;fillColor=none;align=left;verticalAlign=middle;spacingTop=-1;spacingLeft=4;spacingRight=4;rotatable=0;labelPosition=right;points=[];portConstraint=eastwest;" parent="1" vertex="1">
          <mxGeometry x="640" y="430" width="20" height="14" as="geometry" />
        </mxCell>
        <mxCell id="mTcijaQBYKvf38kC7ch_-48" value="Услуга не найдена" style="text;html=1;align=center;verticalAlign=middle;whiteSpace=wrap;rounded=0;" parent="1" vertex="1">
          <mxGeometry x="792.5" y="480" width="120" height="30" as="geometry" />
        </mxCell>
        <mxCell id="mTcijaQBYKvf38kC7ch_-53" style="edgeStyle=orthogonalEdgeStyle;rounded=0;orthogonalLoop=1;jettySize=auto;html=1;exitX=0.5;exitY=1;exitDx=0;exitDy=0;entryX=0.5;entryY=0;entryDx=0;entryDy=0;" parent="1" source="mTcijaQBYKvf38kC7ch_-49" target="mTcijaQBYKvf38kC7ch_-52" edge="1">
          <mxGeometry relative="1" as="geometry" />
        </mxCell>
        <mxCell id="mTcijaQBYKvf38kC7ch_-49" value="Развернуть услугу" style="whiteSpace=wrap;html=1;align=center;" parent="1" vertex="1">
          <mxGeometry x="520" y="570" width="130" height="40" as="geometry" />
        </mxCell>
        <mxCell id="mTcijaQBYKvf38kC7ch_-51" value="Услуга найдена" style="text;html=1;align=center;verticalAlign=middle;whiteSpace=wrap;rounded=0;" parent="1" vertex="1">
          <mxGeometry x="600" y="480" width="90" height="30" as="geometry" />
        </mxCell>
        <mxCell id="mTcijaQBYKvf38kC7ch_-56" style="edgeStyle=orthogonalEdgeStyle;rounded=1;orthogonalLoop=1;jettySize=auto;html=1;exitX=0;exitY=0.5;exitDx=0;exitDy=0;entryX=0.5;entryY=0;entryDx=0;entryDy=0;curved=0;" parent="1" source="mTcijaQBYKvf38kC7ch_-52" target="mTcijaQBYKvf38kC7ch_-55" edge="1">
          <mxGeometry relative="1" as="geometry" />
        </mxCell>
        <mxCell id="mTcijaQBYKvf38kC7ch_-58" style="edgeStyle=orthogonalEdgeStyle;rounded=1;orthogonalLoop=1;jettySize=auto;html=1;exitX=1;exitY=0.5;exitDx=0;exitDy=0;entryX=0.5;entryY=0;entryDx=0;entryDy=0;curved=0;" parent="1" source="mTcijaQBYKvf38kC7ch_-52" target="mTcijaQBYKvf38kC7ch_-57" edge="1">
          <mxGeometry relative="1" as="geometry" />
        </mxCell>
        <mxCell id="mTcijaQBYKvf38kC7ch_-79" style="edgeStyle=orthogonalEdgeStyle;rounded=0;orthogonalLoop=1;jettySize=auto;html=1;exitX=0.5;exitY=1;exitDx=0;exitDy=0;entryX=0.5;entryY=0;entryDx=0;entryDy=0;" parent="1" source="mTcijaQBYKvf38kC7ch_-52" target="mTcijaQBYKvf38kC7ch_-80" edge="1">
          <mxGeometry relative="1" as="geometry">
            <mxPoint x="584.5882352941176" y="770" as="targetPoint" />
          </mxGeometry>
        </mxCell>
        <mxCell id="mTcijaQBYKvf38kC7ch_-52" value="Что дальше?" style="shape=rhombus;perimeter=rhombusPerimeter;whiteSpace=wrap;html=1;align=center;" parent="1" vertex="1">
          <mxGeometry x="525" y="660" width="120" height="40" as="geometry" />
        </mxCell>
        <mxCell id="mTcijaQBYKvf38kC7ch_-55" value="Оставить вопрос по услуге" style="whiteSpace=wrap;html=1;align=center;" parent="1" vertex="1">
          <mxGeometry x="400" y="740" width="111" height="40" as="geometry" />
        </mxCell>
        <mxCell id="mTcijaQBYKvf38kC7ch_-57" value="Отправить запрос на получение" style="whiteSpace=wrap;html=1;align=center;" parent="1" vertex="1">
          <mxGeometry x="640" y="740" width="135" height="40" as="geometry" />
        </mxCell>
        <mxCell id="mTcijaQBYKvf38kC7ch_-77" style="edgeStyle=orthogonalEdgeStyle;rounded=0;orthogonalLoop=1;jettySize=auto;html=1;exitX=0.5;exitY=1;exitDx=0;exitDy=0;" parent="1" source="mTcijaQBYKvf38kC7ch_-59" target="mTcijaQBYKvf38kC7ch_-73" edge="1">
          <mxGeometry relative="1" as="geometry" />
        </mxCell>
        <mxCell id="mTcijaQBYKvf38kC7ch_-59" value="Проверить наличие ответов" style="whiteSpace=wrap;html=1;align=center;" parent="1" vertex="1">
          <mxGeometry x="1040" y="472" width="111" height="40" as="geometry" />
        </mxCell>
        <mxCell id="mTcijaQBYKvf38kC7ch_-62" style="edgeStyle=orthogonalEdgeStyle;rounded=1;orthogonalLoop=1;jettySize=auto;html=1;exitX=0;exitY=0.5;exitDx=0;exitDy=0;entryX=0.5;entryY=0;entryDx=0;entryDy=0;curved=0;" parent="1" source="mTcijaQBYKvf38kC7ch_-60" target="mTcijaQBYKvf38kC7ch_-24" edge="1">
          <mxGeometry relative="1" as="geometry" />
        </mxCell>
        <mxCell id="mTcijaQBYKvf38kC7ch_-60" value="Что дальше?" style="shape=rhombus;perimeter=rhombusPerimeter;whiteSpace=wrap;html=1;align=center;" parent="1" vertex="1">
          <mxGeometry x="828" y="334" width="120" height="60" as="geometry" />
        </mxCell>
        <mxCell id="mTcijaQBYKvf38kC7ch_-65" value="" style="line;strokeWidth=4;rotatable=0;dashed=0;labelPosition=right;align=left;verticalAlign=middle;spacingTop=0;spacingLeft=6;points=[];portConstraint=eastwest;direction=south;" parent="1" vertex="1">
          <mxGeometry x="1000" y="444" width="10" height="130" as="geometry" />
        </mxCell>
        <mxCell id="mTcijaQBYKvf38kC7ch_-66" style="edgeStyle=orthogonalEdgeStyle;rounded=1;orthogonalLoop=1;jettySize=auto;html=1;exitX=0.5;exitY=1;exitDx=0;exitDy=0;entryX=0.653;entryY=0.8;entryDx=0;entryDy=0;entryPerimeter=0;curved=0;" parent="1" source="mTcijaQBYKvf38kC7ch_-57" target="mTcijaQBYKvf38kC7ch_-65" edge="1">
          <mxGeometry relative="1" as="geometry" />
        </mxCell>
        <mxCell id="mTcijaQBYKvf38kC7ch_-67" style="edgeStyle=orthogonalEdgeStyle;rounded=1;orthogonalLoop=1;jettySize=auto;html=1;exitX=0.5;exitY=1;exitDx=0;exitDy=0;entryX=0.827;entryY=0.518;entryDx=0;entryDy=0;entryPerimeter=0;curved=0;" parent="1" source="mTcijaQBYKvf38kC7ch_-55" target="mTcijaQBYKvf38kC7ch_-65" edge="1">
          <mxGeometry relative="1" as="geometry">
            <Array as="points">
              <mxPoint x="456" y="830" />
              <mxPoint x="930" y="830" />
              <mxPoint x="930" y="552" />
            </Array>
          </mxGeometry>
        </mxCell>
        <mxCell id="mTcijaQBYKvf38kC7ch_-68" style="edgeStyle=orthogonalEdgeStyle;rounded=1;orthogonalLoop=1;jettySize=auto;html=1;exitX=1;exitY=0.5;exitDx=0;exitDy=0;entryX=0.53;entryY=0.329;entryDx=0;entryDy=0;entryPerimeter=0;curved=0;" parent="1" source="mTcijaQBYKvf38kC7ch_-60" target="mTcijaQBYKvf38kC7ch_-65" edge="1">
          <mxGeometry relative="1" as="geometry" />
        </mxCell>
        <mxCell id="mTcijaQBYKvf38kC7ch_-69" value="" style="endArrow=classic;html=1;rounded=0;exitX=0.364;exitY=0.8;exitDx=0;exitDy=0;exitPerimeter=0;entryX=0;entryY=0.5;entryDx=0;entryDy=0;" parent="1" source="mTcijaQBYKvf38kC7ch_-65" target="mTcijaQBYKvf38kC7ch_-59" edge="1">
          <mxGeometry width="50" height="50" relative="1" as="geometry">
            <mxPoint x="1010" y="540" as="sourcePoint" />
            <mxPoint x="1060" y="490" as="targetPoint" />
          </mxGeometry>
        </mxCell>
        <mxCell id="mTcijaQBYKvf38kC7ch_-75" style="edgeStyle=orthogonalEdgeStyle;rounded=0;orthogonalLoop=1;jettySize=auto;html=1;exitX=0;exitY=0.5;exitDx=0;exitDy=0;entryX=0.5;entryY=0;entryDx=0;entryDy=0;strokeColor=none;" parent="1" source="mTcijaQBYKvf38kC7ch_-73" target="mTcijaQBYKvf38kC7ch_-74" edge="1">
          <mxGeometry relative="1" as="geometry" />
        </mxCell>
        <mxCell id="mTcijaQBYKvf38kC7ch_-76" style="edgeStyle=orthogonalEdgeStyle;rounded=1;orthogonalLoop=1;jettySize=auto;html=1;exitX=0;exitY=0.5;exitDx=0;exitDy=0;entryX=0.5;entryY=0;entryDx=0;entryDy=0;curved=0;" parent="1" source="mTcijaQBYKvf38kC7ch_-73" target="mTcijaQBYKvf38kC7ch_-74" edge="1">
          <mxGeometry relative="1" as="geometry" />
        </mxCell>
        <mxCell id="mTcijaQBYKvf38kC7ch_-78" style="edgeStyle=orthogonalEdgeStyle;rounded=1;orthogonalLoop=1;jettySize=auto;html=1;exitX=1;exitY=0.5;exitDx=0;exitDy=0;entryX=0.5;entryY=1;entryDx=0;entryDy=0;curved=0;" parent="1" source="mTcijaQBYKvf38kC7ch_-73" target="mTcijaQBYKvf38kC7ch_-60" edge="1">
          <mxGeometry relative="1" as="geometry">
            <Array as="points">
              <mxPoint x="1176" y="600" />
              <mxPoint x="1176" y="410" />
              <mxPoint x="888" y="410" />
            </Array>
          </mxGeometry>
        </mxCell>
        <mxCell id="mTcijaQBYKvf38kC7ch_-73" value="Что дальше?" style="shape=rhombus;perimeter=rhombusPerimeter;whiteSpace=wrap;html=1;align=center;" parent="1" vertex="1">
          <mxGeometry x="1035.5" y="570" width="120" height="60" as="geometry" />
        </mxCell>
        <mxCell id="mTcijaQBYKvf38kC7ch_-74" value="" style="ellipse;html=1;shape=endState;fillColor=#000000;strokeColor=#000000;" parent="1" vertex="1">
          <mxGeometry x="990" y="665" width="30" height="30" as="geometry" />
        </mxCell>
        <mxCell id="mTcijaQBYKvf38kC7ch_-80" value="" style="ellipse;html=1;shape=endState;fillColor=#000000;strokeColor=#000000;" parent="1" vertex="1">
          <mxGeometry x="570" y="780" width="30" height="30" as="geometry" />
        </mxCell>
        <mxCell id="k0_CFrGwtuwRrdzMCQq7-5" style="edgeStyle=orthogonalEdgeStyle;rounded=1;orthogonalLoop=1;jettySize=auto;html=1;exitX=1;exitY=0.5;exitDx=0;exitDy=0;entryX=0.5;entryY=0;entryDx=0;entryDy=0;curved=0;" edge="1" parent="1" source="k0_CFrGwtuwRrdzMCQq7-1" target="mTcijaQBYKvf38kC7ch_-38">
          <mxGeometry relative="1" as="geometry" />
        </mxCell>
        <mxCell id="k0_CFrGwtuwRrdzMCQq7-6" style="edgeStyle=orthogonalEdgeStyle;rounded=1;orthogonalLoop=1;jettySize=auto;html=1;exitX=0;exitY=0.5;exitDx=0;exitDy=0;entryX=0;entryY=0.5;entryDx=0;entryDy=0;curved=0;" edge="1" parent="1" source="k0_CFrGwtuwRrdzMCQq7-1" target="mTcijaQBYKvf38kC7ch_-6">
          <mxGeometry relative="1" as="geometry">
            <Array as="points">
              <mxPoint x="-50" y="565" />
              <mxPoint x="-50" y="260" />
            </Array>
          </mxGeometry>
        </mxCell>
        <mxCell id="k0_CFrGwtuwRrdzMCQq7-1" value="Что дальше?" style="shape=rhombus;perimeter=rhombusPerimeter;whiteSpace=wrap;html=1;align=center;" vertex="1" parent="1">
          <mxGeometry x="25" y="540" width="120" height="50" as="geometry" />
        </mxCell>
        <mxCell id="k0_CFrGwtuwRrdzMCQq7-7" value="Отправка повторного запроса" style="text;html=1;align=center;verticalAlign=middle;whiteSpace=wrap;rounded=0;rotation=-90;" vertex="1" parent="1">
          <mxGeometry x="-160" y="394" width="200" height="30" as="geometry" />
        </mxCell>
      </root>
    </mxGraphModel>
  </diagram>
</mxfile>
